<?xml version="1.0" encoding="UTF-8" standalone="no"?>
<!DOCTYPE svg PUBLIC "-//W3C//DTD SVG 1.1//EN"
 "http://www.w3.org/Graphics/SVG/1.1/DTD/svg11.dtd">
<!-- Generated by graphviz version 6.0.1 (0)
 -->
<!-- Title: G Pages: 1 -->
<svg width="6026pt" height="1278pt"
 viewBox="0.00 0.00 6026.00 1278.00" xmlns="http://www.w3.org/2000/svg" xmlns:xlink="http://www.w3.org/1999/xlink">
<g id="graph0" class="graph" transform="scale(1 1) rotate(0) translate(4 1274)">
<title>G</title><style>.edge>path:hover{stroke-width:8}</style>
<polygon fill="white" stroke="none" points="-4,4 -4,-1274 6022,-1274 6022,4 -4,4"/>
<!-- main -->
<g id="node1" class="node">
<title>main</title><style>.edge>path:hover{stroke-width:8}</style>
<polygon fill="#3a8882" stroke="black" points="444,-1244.54 444,-1259.46 428.18,-1270 405.82,-1270 390,-1259.46 390,-1244.54 405.82,-1234 428.18,-1234 444,-1244.54"/>
<text text-anchor="middle" x="417" y="-1249.5" font-family="Helvetica,sans-Serif" font-size="10.00" fill="#ffffff">main</text>
</g>
<!-- __main__ -->
<g id="node2" class="node">
<title>__main__</title><style>.edge>path:hover{stroke-width:8}</style>
<polygon fill="#7a441e" stroke="black" points="416.51,-1172.54 416.51,-1187.46 393.36,-1198 360.64,-1198 337.49,-1187.46 337.49,-1172.54 360.64,-1162 393.36,-1162 416.51,-1172.54"/>
<text text-anchor="middle" x="377" y="-1177.5" font-family="Helvetica,sans-Serif" font-size="10.00" fill="#ffffff">__main__</text>
</g>
<!-- main&#45;&gt;__main__ -->
<g id="edge15" class="edge">
<title>main&#45;&gt;__main__</title><style>.edge>path:hover{stroke-width:8}</style>
<path fill="none" stroke="black" d="M407.11,-1233.7C402.51,-1225.64 396.94,-1215.89 391.85,-1206.98"/>
<polygon fill="#3a8882" stroke="black" points="394.77,-1205.05 386.77,-1198.1 388.7,-1208.52 394.77,-1205.05"/>
</g>
<!-- pkgresources -->
<g id="node57" class="node">
<title>pkgresources</title><style>.edge>path:hover{stroke-width:8}</style>
<polygon fill="#051cd1" stroke="black" points="341,-1126 338,-1130 317,-1130 314,-1126 259,-1126 259,-1090 341,-1090 341,-1126"/>
<text text-anchor="middle" x="300" y="-1105.5" font-family="Helvetica,sans-Serif" font-size="10.00" fill="#ffffff">pkgresources</text>
</g>
<!-- __main__&#45;&gt;pkgresources -->
<g id="edge7" class="edge">
<title>__main__&#45;&gt;pkgresources</title><style>.edge>path:hover{stroke-width:8}</style>
<path fill="none" stroke="black" d="M358.75,-1162.41C349.09,-1153.63 337.05,-1142.68 326.39,-1132.99"/>
<polygon fill="#7a441e" stroke="black" points="328.67,-1130.34 318.92,-1126.2 323.97,-1135.52 328.67,-1130.34"/>
</g>
<!-- IPython -->
<g id="node3" class="node">
<title>IPython</title><style>.edge>path:hover{stroke-width:8}</style>
<polygon fill="#931010" stroke="black" points="257,-871 254,-875 233,-875 230,-871 203,-871 203,-835 257,-835 257,-871"/>
<text text-anchor="middle" x="230" y="-850.5" font-family="Helvetica,sans-Serif" font-size="10.00" fill="#ffffff">IPython</text>
</g>
<!-- IPython&#45;&gt;__main__ -->
<g id="edge2" class="edge">
<title>IPython&#45;&gt;__main__</title><style>.edge>path:hover{stroke-width:8}</style>
<path fill="none" stroke="black" d="M257.19,-858.67C298.16,-867.45 371,-890.56 371,-944 371,-1054 371,-1054 371,-1054 371,-1087.65 373.2,-1126.33 374.93,-1151.65"/>
<polygon fill="#931010" stroke="black" points="371.44,-1151.89 375.64,-1161.62 378.42,-1151.4 371.44,-1151.89"/>
</g>
<!-- PIL -->
<g id="node6" class="node">
<title>PIL</title><style>.edge>path:hover{stroke-width:8}</style>
<polygon fill="#965240" stroke="black" points="312,-762 309,-766 288,-766 285,-762 258,-762 258,-726 312,-726 312,-762"/>
<text text-anchor="middle" x="285" y="-741.5" font-family="Helvetica,sans-Serif" font-size="10.00" fill="#ffffff">PIL</text>
</g>
<!-- IPython&#45;&gt;PIL -->
<g id="edge1" class="edge">
<title>IPython&#45;&gt;PIL</title><style>.edge>path:hover{stroke-width:8}</style>
<path fill="none" stroke="black" d="M238.84,-834.81C247.66,-817.65 261.33,-791.05 271.51,-771.25"/>
<polygon fill="#931010" stroke="black" points="274.73,-772.64 276.19,-762.15 268.5,-769.44 274.73,-772.64"/>
</g>
<!-- dotenv -->
<g id="node31" class="node">
<title>dotenv</title><style>.edge>path:hover{stroke-width:8}</style>
<polygon fill="#49ac4e" stroke="black" points="384,-762 381,-766 360,-766 357,-762 330,-762 330,-726 384,-726 384,-762"/>
<text text-anchor="middle" x="357" y="-741.5" font-family="Helvetica,sans-Serif" font-size="10.00" fill="#000000">dotenv</text>
</g>
<!-- IPython&#45;&gt;dotenv -->
<g id="edge3" class="edge">
<title>IPython&#45;&gt;dotenv</title><style>.edge>path:hover{stroke-width:8}</style>
<path fill="none" stroke="black" d="M250.4,-834.81C271.7,-816.87 305.23,-788.62 328.99,-768.6"/>
<polygon fill="#931010" stroke="black" points="331.25,-771.27 336.65,-762.15 326.74,-765.92 331.25,-771.27"/>
</g>
<!-- ipykernel -->
<g id="node39" class="node">
<title>ipykernel</title><style>.edge>path:hover{stroke-width:8}</style>
<polygon fill="#439d78" stroke="black" points="74,-690 71,-694 50,-694 47,-690 12,-690 12,-654 74,-654 74,-690"/>
<text text-anchor="middle" x="43" y="-669.5" font-family="Helvetica,sans-Serif" font-size="10.00" fill="#ffffff">ipykernel</text>
</g>
<!-- IPython&#45;&gt;ipykernel -->
<g id="edge4" class="edge">
<title>IPython&#45;&gt;ipykernel</title><style>.edge>path:hover{stroke-width:8}</style>
<path fill="none" stroke="black" d="M202.97,-849.3C170.05,-844.41 115.55,-831.42 83,-799 55.87,-771.98 43.41,-728.22 40.28,-700.04"/>
<polygon fill="#931010" stroke="black" points="43.77,-699.77 39.53,-690.06 36.79,-700.3 43.77,-699.77"/>
</g>
<!-- matplotlib -->
<g id="node45" class="node">
<title>matplotlib</title><style>.edge>path:hover{stroke-width:8}</style>
<polygon fill="#04a7b3" stroke="black" points="201.5,-690 198.5,-694 177.5,-694 174.5,-690 134.5,-690 134.5,-654 201.5,-654 201.5,-690"/>
<text text-anchor="middle" x="168" y="-669.5" font-family="Helvetica,sans-Serif" font-size="10.00" fill="#ffffff">matplotlib</text>
</g>
<!-- IPython&#45;&gt;matplotlib -->
<g id="edge5" class="edge">
<title>IPython&#45;&gt;matplotlib</title><style>.edge>path:hover{stroke-width:8}</style>
<path fill="none" stroke="black" d="M224.06,-834.84C213.22,-803.56 190.2,-737.09 177.28,-699.8"/>
<polygon fill="#931010" stroke="black" points="180.51,-698.42 173.93,-690.11 173.89,-700.71 180.51,-698.42"/>
</g>
<!-- Levenshtein -->
<g id="node4" class="node">
<title>Levenshtein</title><style>.edge>path:hover{stroke-width:8}</style>
<polygon fill="#7a251e" stroke="black" points="538,-1270 535,-1274 514,-1274 511,-1270 462,-1270 462,-1234 538,-1234 538,-1270"/>
<text text-anchor="middle" x="500" y="-1249.5" font-family="Helvetica,sans-Serif" font-size="10.00" fill="#ffffff">Levenshtein</text>
</g>
<!-- OpenSSL -->
<g id="node5" class="node">
<title>OpenSSL</title><style>.edge>path:hover{stroke-width:8}</style>
<polygon fill="#bf3721" stroke="black" points="615.5,-1270 612.5,-1274 591.5,-1274 588.5,-1270 556.5,-1270 556.5,-1234 615.5,-1234 615.5,-1270"/>
<text text-anchor="middle" x="586" y="-1249.5" font-family="Helvetica,sans-Serif" font-size="10.00" fill="#ffffff">OpenSSL</text>
</g>
<!-- docutils -->
<g id="node30" class="node">
<title>docutils</title><style>.edge>path:hover{stroke-width:8}</style>
<polygon fill="#079f04" stroke="black" points="314.5,-474 311.5,-478 290.5,-478 287.5,-474 259.5,-474 259.5,-438 314.5,-438 314.5,-474"/>
<text text-anchor="middle" x="287" y="-453.5" font-family="Helvetica,sans-Serif" font-size="10.00" fill="#ffffff">docutils</text>
</g>
<!-- PIL&#45;&gt;docutils -->
<g id="edge6" class="edge">
<title>PIL&#45;&gt;docutils</title><style>.edge>path:hover{stroke-width:8}</style>
<path fill="none" stroke="black" d="M285.12,-725.97C285.45,-678.29 286.4,-543.18 286.81,-484.63"/>
<polygon fill="#965240" stroke="black" points="290.31,-484.33 286.88,-474.31 283.31,-484.28 290.31,-484.33"/>
</g>
<!-- PySide2 -->
<g id="node7" class="node">
<title>PySide2</title><style>.edge>path:hover{stroke-width:8}</style>
<polygon fill="#c85023" stroke="black" points="690,-1270 687,-1274 666,-1274 663,-1270 634,-1270 634,-1234 690,-1234 690,-1270"/>
<text text-anchor="middle" x="662" y="-1249.5" font-family="Helvetica,sans-Serif" font-size="10.00" fill="#ffffff">PySide2</text>
</g>
<!-- PySide6 -->
<g id="node8" class="node">
<title>PySide6</title><style>.edge>path:hover{stroke-width:8}</style>
<polygon fill="#b45b2d" stroke="black" points="764,-1270 761,-1274 740,-1274 737,-1270 708,-1270 708,-1234 764,-1234 764,-1270"/>
<text text-anchor="middle" x="736" y="-1249.5" font-family="Helvetica,sans-Serif" font-size="10.00" fill="#ffffff">PySide6</text>
</g>
<!-- alabaster -->
<g id="node9" class="node">
<title>alabaster</title><style>.edge>path:hover{stroke-width:8}</style>
<polygon fill="#b8803d" stroke="black" points="844,-1270 841,-1274 820,-1274 817,-1270 782,-1270 782,-1234 844,-1234 844,-1270"/>
<text text-anchor="middle" x="813" y="-1249.5" font-family="Helvetica,sans-Serif" font-size="10.00" fill="#000000">alabaster</text>
</g>
<!-- anyio -->
<g id="node10" class="node">
<title>anyio</title><style>.edge>path:hover{stroke-width:8}</style>
<polygon fill="#af7213" stroke="black" points="916,-1270 913,-1274 892,-1274 889,-1270 862,-1270 862,-1234 916,-1234 916,-1270"/>
<text text-anchor="middle" x="889" y="-1249.5" font-family="Helvetica,sans-Serif" font-size="10.00" fill="#ffffff">anyio</text>
</g>
<!-- apipkg -->
<g id="node11" class="node">
<title>apipkg</title><style>.edge>path:hover{stroke-width:8}</style>
<polygon fill="#a88538" stroke="black" points="988,-1270 985,-1274 964,-1274 961,-1270 934,-1270 934,-1234 988,-1234 988,-1270"/>
<text text-anchor="middle" x="961" y="-1249.5" font-family="Helvetica,sans-Serif" font-size="10.00" fill="#000000">apipkg</text>
</g>
<!-- argcomplete -->
<g id="node12" class="node">
<title>argcomplete</title><style>.edge>path:hover{stroke-width:8}</style>
<polygon fill="#a18635" stroke="black" points="1084,-1270 1081,-1274 1060,-1274 1057,-1270 1006,-1270 1006,-1234 1084,-1234 1084,-1270"/>
<text text-anchor="middle" x="1045" y="-1249.5" font-family="Helvetica,sans-Serif" font-size="10.00" fill="#000000">argcomplete</text>
</g>
<!-- astroid -->
<g id="node13" class="node">
<title>astroid</title><style>.edge>path:hover{stroke-width:8}</style>
<polygon fill="#736526" stroke="black" points="1156,-1270 1153,-1274 1132,-1274 1129,-1270 1102,-1270 1102,-1234 1156,-1234 1156,-1270"/>
<text text-anchor="middle" x="1129" y="-1249.5" font-family="Helvetica,sans-Serif" font-size="10.00" fill="#ffffff">astroid</text>
</g>
<!-- asttokens -->
<g id="node14" class="node">
<title>asttokens</title><style>.edge>path:hover{stroke-width:8}</style>
<polygon fill="#8f863d" stroke="black" points="1238,-1270 1235,-1274 1214,-1274 1211,-1270 1174,-1270 1174,-1234 1238,-1234 1238,-1270"/>
<text text-anchor="middle" x="1206" y="-1249.5" font-family="Helvetica,sans-Serif" font-size="10.00" fill="#000000">asttokens</text>
</g>
<!-- attr -->
<g id="node15" class="node">
<title>attr</title><style>.edge>path:hover{stroke-width:8}</style>
<polygon fill="#b3ae4c" stroke="black" points="1310,-1270 1307,-1274 1286,-1274 1283,-1270 1256,-1270 1256,-1234 1310,-1234 1310,-1270"/>
<text text-anchor="middle" x="1283" y="-1249.5" font-family="Helvetica,sans-Serif" font-size="10.00" fill="#000000">attr</text>
</g>
<!-- babel -->
<g id="node16" class="node">
<title>babel</title><style>.edge>path:hover{stroke-width:8}</style>
<polygon fill="#909310" stroke="black" points="1382,-1270 1379,-1274 1358,-1274 1355,-1270 1328,-1270 1328,-1234 1382,-1234 1382,-1270"/>
<text text-anchor="middle" x="1355" y="-1249.5" font-family="Helvetica,sans-Serif" font-size="10.00" fill="#000000">babel</text>
</g>
<!-- bcrypt -->
<g id="node17" class="node">
<title>bcrypt</title><style>.edge>path:hover{stroke-width:8}</style>
<polygon fill="#b9c823" stroke="black" points="1454,-1270 1451,-1274 1430,-1274 1427,-1270 1400,-1270 1400,-1234 1454,-1234 1454,-1270"/>
<text text-anchor="middle" x="1427" y="-1249.5" font-family="Helvetica,sans-Serif" font-size="10.00" fill="#000000">bcrypt</text>
</g>
<!-- black -->
<g id="node18" class="node">
<title>black</title><style>.edge>path:hover{stroke-width:8}</style>
<polygon fill="#667326" stroke="black" points="1526,-1270 1523,-1274 1502,-1274 1499,-1270 1472,-1270 1472,-1234 1526,-1234 1526,-1270"/>
<text text-anchor="middle" x="1499" y="-1249.5" font-family="Helvetica,sans-Serif" font-size="10.00" fill="#ffffff">black</text>
</g>
<!-- blib2to3 -->
<g id="node19" class="node">
<title>blib2to3</title><style>.edge>path:hover{stroke-width:8}</style>
<polygon fill="#738b22" stroke="black" points="1600,-1270 1597,-1274 1576,-1274 1573,-1270 1544,-1270 1544,-1234 1600,-1234 1600,-1270"/>
<text text-anchor="middle" x="1572" y="-1249.5" font-family="Helvetica,sans-Serif" font-size="10.00" fill="#ffffff">blib2to3</text>
</g>
<!-- cffi -->
<g id="node20" class="node">
<title>cffi</title><style>.edge>path:hover{stroke-width:8}</style>
<polygon fill="#aaef06" stroke="black" points="1672,-1270 1669,-1274 1648,-1274 1645,-1270 1618,-1270 1618,-1234 1672,-1234 1672,-1270"/>
<text text-anchor="middle" x="1645" y="-1249.5" font-family="Helvetica,sans-Serif" font-size="10.00" fill="#000000">cffi</text>
</g>
<!-- charsetnormalizer -->
<g id="node21" class="node">
<title>charsetnormalizer</title><style>.edge>path:hover{stroke-width:8}</style>
<polygon fill="#719b26" stroke="black" points="1795.5,-1270 1792.5,-1274 1771.5,-1274 1768.5,-1270 1690.5,-1270 1690.5,-1234 1795.5,-1234 1795.5,-1270"/>
<text text-anchor="middle" x="1743" y="-1249.5" font-family="Helvetica,sans-Serif" font-size="10.00" fill="#000000">charsetnormalizer</text>
</g>
<!-- click -->
<g id="node22" class="node">
<title>click</title><style>.edge>path:hover{stroke-width:8}</style>
<polygon fill="#62a904" stroke="black" points="1868,-1270 1865,-1274 1844,-1274 1841,-1270 1814,-1270 1814,-1234 1868,-1234 1868,-1270"/>
<text text-anchor="middle" x="1841" y="-1249.5" font-family="Helvetica,sans-Serif" font-size="10.00" fill="#000000">click</text>
</g>
<!-- cloudpickle -->
<g id="node23" class="node">
<title>cloudpickle</title><style>.edge>path:hover{stroke-width:8}</style>
<polygon fill="#75b03a" stroke="black" points="1958,-1270 1955,-1274 1934,-1274 1931,-1270 1886,-1270 1886,-1234 1958,-1234 1958,-1270"/>
<text text-anchor="middle" x="1922" y="-1249.5" font-family="Helvetica,sans-Serif" font-size="10.00" fill="#000000">cloudpickle</text>
</g>
<!-- colorama -->
<g id="node24" class="node">
<title>colorama</title><style>.edge>path:hover{stroke-width:8}</style>
<polygon fill="#74ac49" stroke="black" points="2038,-1270 2035,-1274 2014,-1274 2011,-1270 1976,-1270 1976,-1234 2038,-1234 2038,-1270"/>
<text text-anchor="middle" x="2007" y="-1249.5" font-family="Helvetica,sans-Serif" font-size="10.00" fill="#000000">colorama</text>
</g>
<!-- cryptography -->
<g id="node25" class="node">
<title>cryptography</title><style>.edge>path:hover{stroke-width:8}</style>
<polygon fill="#57e505" stroke="black" points="2137.5,-1270 2134.5,-1274 2113.5,-1274 2110.5,-1270 2056.5,-1270 2056.5,-1234 2137.5,-1234 2137.5,-1270"/>
<text text-anchor="middle" x="2097" y="-1249.5" font-family="Helvetica,sans-Serif" font-size="10.00" fill="#000000">cryptography</text>
</g>
<!-- dateutil -->
<g id="node26" class="node">
<title>dateutil</title><style>.edge>path:hover{stroke-width:8}</style>
<polygon fill="#3d7326" stroke="black" points="2210,-1270 2207,-1274 2186,-1274 2183,-1270 2156,-1270 2156,-1234 2210,-1234 2210,-1270"/>
<text text-anchor="middle" x="2183" y="-1249.5" font-family="Helvetica,sans-Serif" font-size="10.00" fill="#ffffff">dateutil</text>
</g>
<!-- debugpy -->
<g id="node27" class="node">
<title>debugpy</title><style>.edge>path:hover{stroke-width:8}</style>
<polygon fill="#45bf21" stroke="black" points="2287.5,-1270 2284.5,-1274 2263.5,-1274 2260.5,-1270 2228.5,-1270 2228.5,-1234 2287.5,-1234 2287.5,-1270"/>
<text text-anchor="middle" x="2258" y="-1249.5" font-family="Helvetica,sans-Serif" font-size="10.00" fill="#000000">debugpy</text>
</g>
<!-- defusedxml -->
<g id="node28" class="node">
<title>defusedxml</title><style>.edge>path:hover{stroke-width:8}</style>
<polygon fill="#2a8b18" stroke="black" points="2380,-1270 2377,-1274 2356,-1274 2353,-1270 2306,-1270 2306,-1234 2380,-1234 2380,-1270"/>
<text text-anchor="middle" x="2343" y="-1249.5" font-family="Helvetica,sans-Serif" font-size="10.00" fill="#ffffff">defusedxml</text>
</g>
<!-- dill -->
<g id="node29" class="node">
<title>dill</title><style>.edge>path:hover{stroke-width:8}</style>
<polygon fill="#56b34c" stroke="black" points="2452,-1270 2449,-1274 2428,-1274 2425,-1270 2398,-1270 2398,-1234 2452,-1234 2452,-1270"/>
<text text-anchor="middle" x="2425" y="-1249.5" font-family="Helvetica,sans-Serif" font-size="10.00" fill="#000000">dill</text>
</g>
<!-- sphinx -->
<g id="node76" class="node">
<title>sphinx</title><style>.edge>path:hover{stroke-width:8}</style>
<polygon fill="#7a1e6a" stroke="black" points="318,-328 315,-332 294,-332 291,-328 264,-328 264,-292 318,-292 318,-328"/>
<text text-anchor="middle" x="291" y="-307.5" font-family="Helvetica,sans-Serif" font-size="10.00" fill="#ffffff">sphinx</text>
</g>
<!-- docutils&#45;&gt;sphinx -->
<g id="edge8" class="edge">
<title>docutils&#45;&gt;sphinx</title><style>.edge>path:hover{stroke-width:8}</style>
<path fill="none" stroke="black" d="M287.47,-437.92C288.16,-413.34 289.42,-367.75 290.24,-338.43"/>
<polygon fill="#079f04" stroke="black" points="293.75,-338.16 290.53,-328.06 286.75,-337.96 293.75,-338.16"/>
</g>
<!-- uvicorn -->
<g id="node82" class="node">
<title>uvicorn</title><style>.edge>path:hover{stroke-width:8}</style>
<polygon fill="#af1353" stroke="black" points="439,-618 436,-622 415,-622 412,-618 385,-618 385,-582 439,-582 439,-618"/>
<text text-anchor="middle" x="412" y="-597.5" font-family="Helvetica,sans-Serif" font-size="10.00" fill="#ffffff">uvicorn</text>
</g>
<!-- dotenv&#45;&gt;uvicorn -->
<g id="edge9" class="edge">
<title>dotenv&#45;&gt;uvicorn</title><style>.edge>path:hover{stroke-width:8}</style>
<path fill="none" stroke="black" d="M363.63,-725.87C373.09,-701.46 390.53,-656.43 401.68,-627.64"/>
<polygon fill="#49ac4e" stroke="black" points="404.99,-628.78 405.34,-618.19 398.47,-626.25 404.99,-628.78"/>
</g>
<!-- executing -->
<g id="node32" class="node">
<title>executing</title><style>.edge>path:hover{stroke-width:8}</style>
<polygon fill="#49ac54" stroke="black" points="2534,-1270 2531,-1274 2510,-1274 2507,-1270 2470,-1270 2470,-1234 2534,-1234 2534,-1270"/>
<text text-anchor="middle" x="2502" y="-1249.5" font-family="Helvetica,sans-Serif" font-size="10.00" fill="#000000">executing</text>
</g>
<!-- fastapi -->
<g id="node33" class="node">
<title>fastapi</title><style>.edge>path:hover{stroke-width:8}</style>
<polygon fill="#267334" stroke="black" points="2606,-1270 2603,-1274 2582,-1274 2579,-1270 2552,-1270 2552,-1234 2606,-1234 2606,-1270"/>
<text text-anchor="middle" x="2579" y="-1249.5" font-family="Helvetica,sans-Serif" font-size="10.00" fill="#ffffff">fastapi</text>
</g>
<!-- gi -->
<g id="node34" class="node">
<title>gi</title><style>.edge>path:hover{stroke-width:8}</style>
<polygon fill="#06ef40" stroke="black" points="2678,-1270 2675,-1274 2654,-1274 2651,-1270 2624,-1270 2624,-1234 2678,-1234 2678,-1270"/>
<text text-anchor="middle" x="2651" y="-1249.5" font-family="Helvetica,sans-Serif" font-size="10.00" fill="#000000">gi</text>
</g>
<!-- h11 -->
<g id="node35" class="node">
<title>h11</title><style>.edge>path:hover{stroke-width:8}</style>
<polygon fill="#0bdf4f" stroke="black" points="2750,-1270 2747,-1274 2726,-1274 2723,-1270 2696,-1270 2696,-1234 2750,-1234 2750,-1270"/>
<text text-anchor="middle" x="2723" y="-1249.5" font-family="Helvetica,sans-Serif" font-size="10.00" fill="#000000">h11</text>
</g>
<!-- httptools -->
<g id="node36" class="node">
<title>httptools</title><style>.edge>path:hover{stroke-width:8}</style>
<polygon fill="#33995a" stroke="black" points="2828,-1270 2825,-1274 2804,-1274 2801,-1270 2768,-1270 2768,-1234 2828,-1234 2828,-1270"/>
<text text-anchor="middle" x="2798" y="-1249.5" font-family="Helvetica,sans-Serif" font-size="10.00" fill="#ffffff">httptools</text>
</g>
<!-- idna -->
<g id="node37" class="node">
<title>idna</title><style>.edge>path:hover{stroke-width:8}</style>
<polygon fill="#439d6c" stroke="black" points="2900,-1270 2897,-1274 2876,-1274 2873,-1270 2846,-1270 2846,-1234 2900,-1234 2900,-1270"/>
<text text-anchor="middle" x="2873" y="-1249.5" font-family="Helvetica,sans-Serif" font-size="10.00" fill="#ffffff">idna</text>
</g>
<!-- importlibmetadata -->
<g id="node38" class="node">
<title>importlibmetadata</title><style>.edge>path:hover{stroke-width:8}</style>
<polygon fill="#039550" stroke="black" points="3026,-1270 3023,-1274 3002,-1274 2999,-1270 2918,-1270 2918,-1234 3026,-1234 3026,-1270"/>
<text text-anchor="middle" x="2972" y="-1249.5" font-family="Helvetica,sans-Serif" font-size="10.00" fill="#ffffff">importlibmetadata</text>
</g>
<!-- pep517 -->
<g id="node55" class="node">
<title>pep517</title><style>.edge>path:hover{stroke-width:8}</style>
<polygon fill="#3d518f" stroke="black" points="2999,-1126 2996,-1130 2975,-1130 2972,-1126 2945,-1126 2945,-1090 2999,-1090 2999,-1126"/>
<text text-anchor="middle" x="2972" y="-1105.5" font-family="Helvetica,sans-Serif" font-size="10.00" fill="#ffffff">pep517</text>
</g>
<!-- importlibmetadata&#45;&gt;pep517 -->
<g id="edge10" class="edge">
<title>importlibmetadata&#45;&gt;pep517</title><style>.edge>path:hover{stroke-width:8}</style>
<path fill="none" stroke="black" d="M2967.42,-1233.87C2964.86,-1209.67 2964.57,-1165.21 2966.54,-1136.39"/>
<polygon fill="#039550" stroke="black" points="2970.05,-1136.45 2967.41,-1126.19 2963.07,-1135.86 2970.05,-1136.45"/>
</g>
<!-- ipykernel&#45;&gt;IPython -->
<g id="edge11" class="edge">
<title>ipykernel&#45;&gt;IPython</title><style>.edge>path:hover{stroke-width:8}</style>
<path fill="none" stroke="black" d="M50.84,-690.06C58.47,-716.77 70.4,-768.53 101,-799 126.19,-824.08 164.51,-837.54 192.96,-844.6"/>
<polygon fill="#439d78" stroke="black" points="192.42,-848.07 202.95,-846.93 194.01,-841.25 192.42,-848.07"/>
</g>
<!-- jupyterclient -->
<g id="node43" class="node">
<title>jupyterclient</title><style>.edge>path:hover{stroke-width:8}</style>
<polygon fill="#3ab0a0" stroke="black" points="78,-618 75,-622 54,-622 51,-618 0,-618 0,-582 78,-582 78,-618"/>
<text text-anchor="middle" x="39" y="-597.5" font-family="Helvetica,sans-Serif" font-size="10.00" fill="#000000">jupyterclient</text>
</g>
<!-- ipykernel&#45;&gt;jupyterclient -->
<g id="edge12" class="edge">
<title>ipykernel&#45;&gt;jupyterclient</title><style>.edge>path:hover{stroke-width:8}</style>
<path fill="none" stroke="black" d="M36.1,-653.7C34.86,-645.98 34.1,-636.71 33.95,-628.11"/>
<polygon fill="#439d78" stroke="black" points="37.45,-628.15 34.08,-618.1 30.45,-628.06 37.45,-628.15"/>
</g>
<!-- jedi -->
<g id="node40" class="node">
<title>jedi</title><style>.edge>path:hover{stroke-width:8}</style>
<polygon fill="#04bd7e" stroke="black" points="276,-36 273,-40 252,-40 249,-36 222,-36 222,0 276,0 276,-36"/>
<text text-anchor="middle" x="249" y="-15.5" font-family="Helvetica,sans-Serif" font-size="10.00" fill="#ffffff">jedi</text>
</g>
<!-- jedi&#45;&gt;IPython -->
<g id="edge13" class="edge">
<title>jedi&#45;&gt;IPython</title><style>.edge>path:hover{stroke-width:8}</style>
<path fill="none" stroke="black" d="M243.2,-36.03C237.61,-53.96 230,-83.13 230,-109 230,-745 230,-745 230,-745 230,-772.17 230,-803.23 230,-824.86"/>
<polygon fill="#04bd7e" stroke="black" points="226.5,-824.95 230,-834.95 233.5,-824.95 226.5,-824.95"/>
</g>
<!-- jinja2 -->
<g id="node41" class="node">
<title>jinja2</title><style>.edge>path:hover{stroke-width:8}</style>
<polygon fill="#04bd8b" stroke="black" points="3098,-1270 3095,-1274 3074,-1274 3071,-1270 3044,-1270 3044,-1234 3098,-1234 3098,-1270"/>
<text text-anchor="middle" x="3071" y="-1249.5" font-family="Helvetica,sans-Serif" font-size="10.00" fill="#000000">jinja2</text>
</g>
<!-- jsonschema -->
<g id="node42" class="node">
<title>jsonschema</title><style>.edge>path:hover{stroke-width:8}</style>
<polygon fill="#1e7a68" stroke="black" points="3191.5,-1270 3188.5,-1274 3167.5,-1274 3164.5,-1270 3116.5,-1270 3116.5,-1234 3191.5,-1234 3191.5,-1270"/>
<text text-anchor="middle" x="3154" y="-1249.5" font-family="Helvetica,sans-Serif" font-size="10.00" fill="#ffffff">jsonschema</text>
</g>
<!-- jupyterclient&#45;&gt;ipykernel -->
<g id="edge14" class="edge">
<title>jupyterclient&#45;&gt;ipykernel</title><style>.edge>path:hover{stroke-width:8}</style>
<path fill="none" stroke="black" d="M45.87,-618.1C47.12,-625.79 47.88,-635.05 48.04,-643.67"/>
<polygon fill="#3ab0a0" stroke="black" points="44.54,-643.66 47.93,-653.7 51.54,-643.74 44.54,-643.66"/>
</g>
<!-- markupsafe -->
<g id="node44" class="node">
<title>markupsafe</title><style>.edge>path:hover{stroke-width:8}</style>
<polygon fill="#05dbdb" stroke="black" points="3284,-1270 3281,-1274 3260,-1274 3257,-1270 3210,-1270 3210,-1234 3284,-1234 3284,-1270"/>
<text text-anchor="middle" x="3247" y="-1249.5" font-family="Helvetica,sans-Serif" font-size="10.00" fill="#000000">markupsafe</text>
</g>
<!-- matplotlibinline -->
<g id="node46" class="node">
<title>matplotlibinline</title><style>.edge>path:hover{stroke-width:8}</style>
<polygon fill="#0f798a" stroke="black" points="194,-546 191,-550 170,-550 167,-546 100,-546 100,-510 194,-510 194,-546"/>
<text text-anchor="middle" x="147" y="-525.5" font-family="Helvetica,sans-Serif" font-size="10.00" fill="#ffffff">matplotlibinline</text>
</g>
<!-- matplotlib&#45;&gt;matplotlibinline -->
<g id="edge16" class="edge">
<title>matplotlib&#45;&gt;matplotlibinline</title><style>.edge>path:hover{stroke-width:8}</style>
<path fill="none" stroke="black" d="M165.47,-653.87C161.89,-629.67 155.31,-585.21 151.05,-556.39"/>
<polygon fill="#04a7b3" stroke="black" points="154.47,-555.57 149.54,-546.19 147.54,-556.59 154.47,-555.57"/>
</g>
<!-- matplotlibinline&#45;&gt;IPython -->
<g id="edge17" class="edge">
<title>matplotlibinline&#45;&gt;IPython</title><style>.edge>path:hover{stroke-width:8}</style>
<path fill="none" stroke="black" d="M138.7,-546.03C126.72,-572.23 106,-624.3 106,-671 106,-745 106,-745 106,-745 106,-791.59 156.8,-822.38 193.37,-838.5"/>
<polygon fill="#0f798a" stroke="black" points="192.21,-841.81 202.79,-842.47 194.93,-835.36 192.21,-841.81"/>
</g>
<!-- nacl -->
<g id="node47" class="node">
<title>nacl</title><style>.edge>path:hover{stroke-width:8}</style>
<polygon fill="#176c82" stroke="black" points="3356,-1270 3353,-1274 3332,-1274 3329,-1270 3302,-1270 3302,-1234 3356,-1234 3356,-1270"/>
<text text-anchor="middle" x="3329" y="-1249.5" font-family="Helvetica,sans-Serif" font-size="10.00" fill="#ffffff">nacl</text>
</g>
<!-- nbformat -->
<g id="node48" class="node">
<title>nbformat</title><style>.edge>path:hover{stroke-width:8}</style>
<polygon fill="#127da5" stroke="black" points="3436,-1270 3433,-1274 3412,-1274 3409,-1270 3374,-1270 3374,-1234 3436,-1234 3436,-1270"/>
<text text-anchor="middle" x="3405" y="-1249.5" font-family="Helvetica,sans-Serif" font-size="10.00" fill="#ffffff">nbformat</text>
</g>
<!-- nose -->
<g id="node49" class="node">
<title>nose</title><style>.edge>path:hover{stroke-width:8}</style>
<polygon fill="#3882a8" stroke="black" points="3508,-1270 3505,-1274 3484,-1274 3481,-1270 3454,-1270 3454,-1234 3508,-1234 3508,-1270"/>
<text text-anchor="middle" x="3481" y="-1249.5" font-family="Helvetica,sans-Serif" font-size="10.00" fill="#ffffff">nose</text>
</g>
<!-- numpy -->
<g id="node50" class="node">
<title>numpy</title><style>.edge>path:hover{stroke-width:8}</style>
<polygon fill="#22608b" stroke="black" points="3580,-1270 3577,-1274 3556,-1274 3553,-1270 3526,-1270 3526,-1234 3580,-1234 3580,-1270"/>
<text text-anchor="middle" x="3553" y="-1249.5" font-family="Helvetica,sans-Serif" font-size="10.00" fill="#ffffff">numpy</text>
</g>
<!-- numpydoc -->
<g id="node51" class="node">
<title>numpydoc</title><style>.edge>path:hover{stroke-width:8}</style>
<polygon fill="#306391" stroke="black" points="326,-182 323,-186 302,-186 299,-182 258,-182 258,-146 326,-146 326,-182"/>
<text text-anchor="middle" x="292" y="-161.5" font-family="Helvetica,sans-Serif" font-size="10.00" fill="#ffffff">numpydoc</text>
</g>
<!-- numpydoc&#45;&gt;jedi -->
<g id="edge18" class="edge">
<title>numpydoc&#45;&gt;jedi</title><style>.edge>path:hover{stroke-width:8}</style>
<path fill="none" stroke="black" d="M286.9,-145.92C279.5,-121.12 265.71,-74.95 256.96,-45.66"/>
<polygon fill="#306391" stroke="black" points="260.31,-44.64 254.09,-36.06 253.6,-46.65 260.31,-44.64"/>
</g>
<!-- paramiko -->
<g id="node52" class="node">
<title>paramiko</title><style>.edge>path:hover{stroke-width:8}</style>
<polygon fill="#3d75b8" stroke="black" points="3660,-1270 3657,-1274 3636,-1274 3633,-1270 3598,-1270 3598,-1234 3660,-1234 3660,-1270"/>
<text text-anchor="middle" x="3629" y="-1249.5" font-family="Helvetica,sans-Serif" font-size="10.00" fill="#ffffff">paramiko</text>
</g>
<!-- parso -->
<g id="node53" class="node">
<title>parso</title><style>.edge>path:hover{stroke-width:8}</style>
<polygon fill="#0660ef" stroke="black" points="3732,-1270 3729,-1274 3708,-1274 3705,-1270 3678,-1270 3678,-1234 3732,-1234 3732,-1270"/>
<text text-anchor="middle" x="3705" y="-1249.5" font-family="Helvetica,sans-Serif" font-size="10.00" fill="#ffffff">parso</text>
</g>
<!-- pathspec -->
<g id="node54" class="node">
<title>pathspec</title><style>.edge>path:hover{stroke-width:8}</style>
<polygon fill="#1753d3" stroke="black" points="3811.5,-1270 3808.5,-1274 3787.5,-1274 3784.5,-1270 3750.5,-1270 3750.5,-1234 3811.5,-1234 3811.5,-1270"/>
<text text-anchor="middle" x="3781" y="-1249.5" font-family="Helvetica,sans-Serif" font-size="10.00" fill="#ffffff">pathspec</text>
</g>
<!-- pep517&#45;&gt;importlibmetadata -->
<g id="edge19" class="edge">
<title>pep517&#45;&gt;importlibmetadata</title><style>.edge>path:hover{stroke-width:8}</style>
<path fill="none" stroke="black" d="M2976.59,-1126.19C2979.15,-1150.42 2979.43,-1194.89 2977.45,-1223.68"/>
<polygon fill="#3d518f" stroke="black" points="2973.95,-1223.61 2976.58,-1233.87 2980.92,-1224.21 2973.95,-1223.61"/>
</g>
<!-- pexpect -->
<g id="node56" class="node">
<title>pexpect</title><style>.edge>path:hover{stroke-width:8}</style>
<polygon fill="#3549a1" stroke="black" points="3886,-1270 3883,-1274 3862,-1274 3859,-1270 3830,-1270 3830,-1234 3886,-1234 3886,-1270"/>
<text text-anchor="middle" x="3858" y="-1249.5" font-family="Helvetica,sans-Serif" font-size="10.00" fill="#ffffff">pexpect</text>
</g>
<!-- pygments -->
<g id="node66" class="node">
<title>pygments</title><style>.edge>path:hover{stroke-width:8}</style>
<polygon fill="#6605c7" stroke="black" points="318.5,-1017 315.5,-1021 294.5,-1021 291.5,-1017 253.5,-1017 253.5,-981 318.5,-981 318.5,-1017"/>
<text text-anchor="middle" x="286" y="-996.5" font-family="Helvetica,sans-Serif" font-size="10.00" fill="#ffffff">pygments</text>
</g>
<!-- pkgresources&#45;&gt;pygments -->
<g id="edge20" class="edge">
<title>pkgresources&#45;&gt;pygments</title><style>.edge>path:hover{stroke-width:8}</style>
<path fill="none" stroke="black" d="M297.75,-1089.81C295.54,-1072.88 292.12,-1046.78 289.54,-1027.07"/>
<polygon fill="#051cd1" stroke="black" points="293.01,-1026.61 288.24,-1017.15 286.07,-1027.52 293.01,-1026.61"/>
</g>
<!-- platformdirs -->
<g id="node58" class="node">
<title>platformdirs</title><style>.edge>path:hover{stroke-width:8}</style>
<polygon fill="#2e328a" stroke="black" points="3981.5,-1270 3978.5,-1274 3957.5,-1274 3954.5,-1270 3904.5,-1270 3904.5,-1234 3981.5,-1234 3981.5,-1270"/>
<text text-anchor="middle" x="3943" y="-1249.5" font-family="Helvetica,sans-Serif" font-size="10.00" fill="#ffffff">platformdirs</text>
</g>
<!-- pluggy -->
<g id="node59" class="node">
<title>pluggy</title><style>.edge>path:hover{stroke-width:8}</style>
<polygon fill="#1a16ca" stroke="black" points="4054,-1270 4051,-1274 4030,-1274 4027,-1270 4000,-1270 4000,-1234 4054,-1234 4054,-1270"/>
<text text-anchor="middle" x="4027" y="-1249.5" font-family="Helvetica,sans-Serif" font-size="10.00" fill="#ffffff">pluggy</text>
</g>
<!-- prompttoolkit -->
<g id="node60" class="node">
<title>prompttoolkit</title><style>.edge>path:hover{stroke-width:8}</style>
<polygon fill="#2d20b6" stroke="black" points="4155.5,-1270 4152.5,-1274 4131.5,-1274 4128.5,-1270 4072.5,-1270 4072.5,-1234 4155.5,-1234 4155.5,-1270"/>
<text text-anchor="middle" x="4114" y="-1249.5" font-family="Helvetica,sans-Serif" font-size="10.00" fill="#ffffff">prompttoolkit</text>
</g>
<!-- psutil -->
<g id="node61" class="node">
<title>psutil</title><style>.edge>path:hover{stroke-width:8}</style>
<polygon fill="#403091" stroke="black" points="4228,-1270 4225,-1274 4204,-1274 4201,-1270 4174,-1270 4174,-1234 4228,-1234 4228,-1270"/>
<text text-anchor="middle" x="4201" y="-1249.5" font-family="Helvetica,sans-Serif" font-size="10.00" fill="#ffffff">psutil</text>
</g>
<!-- ptyprocess -->
<g id="node62" class="node">
<title>ptyprocess</title><style>.edge>path:hover{stroke-width:8}</style>
<polygon fill="#5d40c0" stroke="black" points="4316,-1270 4313,-1274 4292,-1274 4289,-1270 4246,-1270 4246,-1234 4316,-1234 4316,-1270"/>
<text text-anchor="middle" x="4281" y="-1249.5" font-family="Helvetica,sans-Serif" font-size="10.00" fill="#ffffff">ptyprocess</text>
</g>
<!-- pureeval -->
<g id="node63" class="node">
<title>pureeval</title><style>.edge>path:hover{stroke-width:8}</style>
<polygon fill="#582fbc" stroke="black" points="4393.5,-1270 4390.5,-1274 4369.5,-1274 4366.5,-1270 4334.5,-1270 4334.5,-1234 4393.5,-1234 4393.5,-1270"/>
<text text-anchor="middle" x="4364" y="-1249.5" font-family="Helvetica,sans-Serif" font-size="10.00" fill="#ffffff">pureeval</text>
</g>
<!-- py -->
<g id="node64" class="node">
<title>py</title><style>.edge>path:hover{stroke-width:8}</style>
<polygon fill="#583399" stroke="black" points="4466,-1270 4463,-1274 4442,-1274 4439,-1270 4412,-1270 4412,-1234 4466,-1234 4466,-1270"/>
<text text-anchor="middle" x="4439" y="-1249.5" font-family="Helvetica,sans-Serif" font-size="10.00" fill="#ffffff">py</text>
</g>
<!-- pycparser -->
<g id="node65" class="node">
<title>pycparser</title><style>.edge>path:hover{stroke-width:8}</style>
<polygon fill="#7326d9" stroke="black" points="4549.5,-1270 4546.5,-1274 4525.5,-1274 4522.5,-1270 4484.5,-1270 4484.5,-1234 4549.5,-1234 4549.5,-1270"/>
<text text-anchor="middle" x="4517" y="-1249.5" font-family="Helvetica,sans-Serif" font-size="10.00" fill="#ffffff">pycparser</text>
</g>
<!-- pygments&#45;&gt;IPython -->
<g id="edge21" class="edge">
<title>pygments&#45;&gt;IPython</title><style>.edge>path:hover{stroke-width:8}</style>
<path fill="none" stroke="black" d="M279.36,-980.92C269.72,-956.12 251.76,-909.95 240.37,-880.66"/>
<polygon fill="#6605c7" stroke="black" points="243.52,-879.11 236.64,-871.06 237,-881.65 243.52,-879.11"/>
</g>
<!-- pyparsing -->
<g id="node67" class="node">
<title>pyparsing</title><style>.edge>path:hover{stroke-width:8}</style>
<polygon fill="#7f2fbc" stroke="black" points="4632.5,-1270 4629.5,-1274 4608.5,-1274 4605.5,-1270 4567.5,-1270 4567.5,-1234 4632.5,-1234 4632.5,-1270"/>
<text text-anchor="middle" x="4600" y="-1249.5" font-family="Helvetica,sans-Serif" font-size="10.00" fill="#ffffff">pyparsing</text>
</g>
<!-- pyrsistent -->
<g id="node68" class="node">
<title>pyrsistent</title><style>.edge>path:hover{stroke-width:8}</style>
<polygon fill="#8d05db" stroke="black" points="4715.5,-1270 4712.5,-1274 4691.5,-1274 4688.5,-1270 4650.5,-1270 4650.5,-1234 4715.5,-1234 4715.5,-1270"/>
<text text-anchor="middle" x="4683" y="-1249.5" font-family="Helvetica,sans-Serif" font-size="10.00" fill="#ffffff">pyrsistent</text>
</g>
<!-- pytest -->
<g id="node69" class="node">
<title>pytest</title><style>.edge>path:hover{stroke-width:8}</style>
<polygon fill="#ef7506" stroke="black" points="4788,-1270 4785,-1274 4764,-1274 4761,-1270 4734,-1270 4734,-1234 4788,-1234 4788,-1270"/>
<text text-anchor="middle" x="4761" y="-1249.5" font-family="Helvetica,sans-Serif" font-size="10.00" fill="#000000">pytest</text>
</g>
<!-- pytz -->
<g id="node70" class="node">
<title>pytz</title><style>.edge>path:hover{stroke-width:8}</style>
<polygon fill="#9304bd" stroke="black" points="4860,-1270 4857,-1274 4836,-1274 4833,-1270 4806,-1270 4806,-1234 4860,-1234 4860,-1270"/>
<text text-anchor="middle" x="4833" y="-1249.5" font-family="Helvetica,sans-Serif" font-size="10.00" fill="#ffffff">pytz</text>
</g>
<!-- rapidfuzz -->
<g id="node71" class="node">
<title>rapidfuzz</title><style>.edge>path:hover{stroke-width:8}</style>
<polygon fill="#a805c7" stroke="black" points="4940,-1270 4937,-1274 4916,-1274 4913,-1270 4878,-1270 4878,-1234 4940,-1234 4940,-1270"/>
<text text-anchor="middle" x="4909" y="-1249.5" font-family="Helvetica,sans-Serif" font-size="10.00" fill="#ffffff">rapidfuzz</text>
</g>
<!-- requests -->
<g id="node72" class="node">
<title>requests</title><style>.edge>path:hover{stroke-width:8}</style>
<polygon fill="#721e7a" stroke="black" points="5017.5,-1270 5014.5,-1274 4993.5,-1274 4990.5,-1270 4958.5,-1270 4958.5,-1234 5017.5,-1234 5017.5,-1270"/>
<text text-anchor="middle" x="4988" y="-1249.5" font-family="Helvetica,sans-Serif" font-size="10.00" fill="#ffffff">requests</text>
</g>
<!-- scipy -->
<g id="node73" class="node">
<title>scipy</title><style>.edge>path:hover{stroke-width:8}</style>
<polygon fill="#b92fbc" stroke="black" points="5090,-1270 5087,-1274 5066,-1274 5063,-1270 5036,-1270 5036,-1234 5090,-1234 5090,-1270"/>
<text text-anchor="middle" x="5063" y="-1249.5" font-family="Helvetica,sans-Serif" font-size="10.00" fill="#ffffff">scipy</text>
</g>
<!-- setuptools -->
<g id="node74" class="node">
<title>setuptools</title><style>.edge>path:hover{stroke-width:8}</style>
<polygon fill="#95038f" stroke="black" points="5176,-1270 5173,-1274 5152,-1274 5149,-1270 5108,-1270 5108,-1234 5176,-1234 5176,-1270"/>
<text text-anchor="middle" x="5142" y="-1249.5" font-family="Helvetica,sans-Serif" font-size="10.00" fill="#ffffff">setuptools</text>
</g>
<!-- shiboken6 -->
<g id="node75" class="node">
<title>shiboken6</title><style>.edge>path:hover{stroke-width:8}</style>
<polygon fill="#b83daa" stroke="black" points="5260,-1270 5257,-1274 5236,-1274 5233,-1270 5194,-1270 5194,-1234 5260,-1234 5260,-1270"/>
<text text-anchor="middle" x="5227" y="-1249.5" font-family="Helvetica,sans-Serif" font-size="10.00" fill="#ffffff">shiboken6</text>
</g>
<!-- sphinx&#45;&gt;numpydoc -->
<g id="edge22" class="edge">
<title>sphinx&#45;&gt;numpydoc</title><style>.edge>path:hover{stroke-width:8}</style>
<path fill="none" stroke="black" d="M291.12,-291.92C291.29,-267.34 291.61,-221.75 291.81,-192.43"/>
<polygon fill="#7a1e6a" stroke="black" points="295.31,-192.09 291.88,-182.06 288.31,-192.04 295.31,-192.09"/>
</g>
<!-- stackdata -->
<g id="node77" class="node">
<title>stackdata</title><style>.edge>path:hover{stroke-width:8}</style>
<polygon fill="#bf2198" stroke="black" points="5343.5,-1270 5340.5,-1274 5319.5,-1274 5316.5,-1270 5278.5,-1270 5278.5,-1234 5343.5,-1234 5343.5,-1270"/>
<text text-anchor="middle" x="5311" y="-1249.5" font-family="Helvetica,sans-Serif" font-size="10.00" fill="#ffffff">stackdata</text>
</g>
<!-- starlette -->
<g id="node78" class="node">
<title>starlette</title><style>.edge>path:hover{stroke-width:8}</style>
<polygon fill="#931069" stroke="black" points="5420,-1270 5417,-1274 5396,-1274 5393,-1270 5362,-1270 5362,-1234 5420,-1234 5420,-1270"/>
<text text-anchor="middle" x="5391" y="-1249.5" font-family="Helvetica,sans-Serif" font-size="10.00" fill="#ffffff">starlette</text>
</g>
<!-- tornado -->
<g id="node79" class="node">
<title>tornado</title><style>.edge>path:hover{stroke-width:8}</style>
<polygon fill="#d10582" stroke="black" points="5492,-1270 5489,-1274 5468,-1274 5465,-1270 5438,-1270 5438,-1234 5492,-1234 5492,-1270"/>
<text text-anchor="middle" x="5465" y="-1249.5" font-family="Helvetica,sans-Serif" font-size="10.00" fill="#ffffff">tornado</text>
</g>
<!-- traitlets -->
<g id="node80" class="node">
<title>traitlets</title><style>.edge>path:hover{stroke-width:8}</style>
<polygon fill="#bd0469" stroke="black" points="5565.5,-1270 5562.5,-1274 5541.5,-1274 5538.5,-1270 5510.5,-1270 5510.5,-1234 5565.5,-1234 5565.5,-1270"/>
<text text-anchor="middle" x="5538" y="-1249.5" font-family="Helvetica,sans-Serif" font-size="10.00" fill="#ffffff">traitlets</text>
</g>
<!-- urllib3 -->
<g id="node81" class="node">
<title>urllib3</title><style>.edge>path:hover{stroke-width:8}</style>
<polygon fill="#e50570" stroke="black" points="5638,-1270 5635,-1274 5614,-1274 5611,-1270 5584,-1270 5584,-1234 5638,-1234 5638,-1270"/>
<text text-anchor="middle" x="5611" y="-1249.5" font-family="Helvetica,sans-Serif" font-size="10.00" fill="#ffffff">urllib3</text>
</g>
<!-- uvicorn&#45;&gt;main -->
<g id="edge24" class="edge">
<title>uvicorn&#45;&gt;main</title><style>.edge>path:hover{stroke-width:8}</style>
<path fill="none" stroke="black" d="M419.69,-618.09C430.79,-644.38 450,-696.55 450,-743 450,-1109 450,-1109 450,-1109 450,-1150.03 436.77,-1196.03 427.06,-1224.26"/>
<polygon fill="#af1353" stroke="black" points="423.72,-1223.22 423.68,-1233.81 430.32,-1225.55 423.72,-1223.22"/>
</g>
<!-- uvicorn&#45;&gt;__main__ -->
<g id="edge23" class="edge">
<title>uvicorn&#45;&gt;__main__</title><style>.edge>path:hover{stroke-width:8}</style>
<path fill="none" stroke="black" d="M412,-618.05C412,-644.71 412,-697.89 412,-743 412,-1054 412,-1054 412,-1054 412,-1088.86 399.22,-1127.23 389.11,-1152.14"/>
<polygon fill="#af1353" stroke="black" points="385.77,-1151.05 385.12,-1161.63 392.22,-1153.77 385.77,-1151.05"/>
</g>
<!-- uvloop -->
<g id="node83" class="node">
<title>uvloop</title><style>.edge>path:hover{stroke-width:8}</style>
<polygon fill="#a8385e" stroke="black" points="5710,-1270 5707,-1274 5686,-1274 5683,-1270 5656,-1270 5656,-1234 5710,-1234 5710,-1270"/>
<text text-anchor="middle" x="5683" y="-1249.5" font-family="Helvetica,sans-Serif" font-size="10.00" fill="#ffffff">uvloop</text>
</g>
<!-- websockets -->
<g id="node84" class="node">
<title>websockets</title><style>.edge>path:hover{stroke-width:8}</style>
<polygon fill="#c20a3c" stroke="black" points="5802,-1270 5799,-1274 5778,-1274 5775,-1270 5728,-1270 5728,-1234 5802,-1234 5802,-1270"/>
<text text-anchor="middle" x="5765" y="-1249.5" font-family="Helvetica,sans-Serif" font-size="10.00" fill="#ffffff">websockets</text>
</g>
<!-- yaml -->
<g id="node85" class="node">
<title>yaml</title><style>.edge>path:hover{stroke-width:8}</style>
<polygon fill="#8f3d4e" stroke="black" points="5874,-1270 5871,-1274 5850,-1274 5847,-1270 5820,-1270 5820,-1234 5874,-1234 5874,-1270"/>
<text text-anchor="middle" x="5847" y="-1249.5" font-family="Helvetica,sans-Serif" font-size="10.00" fill="#ffffff">yaml</text>
</g>
<!-- yapf -->
<g id="node86" class="node">
<title>yapf</title><style>.edge>path:hover{stroke-width:8}</style>
<polygon fill="#d10521" stroke="black" points="5946,-1270 5943,-1274 5922,-1274 5919,-1270 5892,-1270 5892,-1234 5946,-1234 5946,-1270"/>
<text text-anchor="middle" x="5919" y="-1249.5" font-family="Helvetica,sans-Serif" font-size="10.00" fill="#ffffff">yapf</text>
</g>
<!-- zmq -->
<g id="node87" class="node">
<title>zmq</title><style>.edge>path:hover{stroke-width:8}</style>
<polygon fill="#d10513" stroke="black" points="6018,-1270 6015,-1274 5994,-1274 5991,-1270 5964,-1270 5964,-1234 6018,-1234 6018,-1270"/>
<text text-anchor="middle" x="5991" y="-1249.5" font-family="Helvetica,sans-Serif" font-size="10.00" fill="#ffffff">zmq</text>
</g>
</g>
</svg>
